# xmcd CD database file
#
# Track frame offsets:
#	150
#	15810
#	28250
#	39112
#	53010
#	64860
#	78750
#	90037
#	107760
#	120210
#	142935
#	155610
#	169635
#	182737
#	197010
#	209985
#	219697
#	231585
#
# Disc length: 3217 seconds
#
# Revision: 0
# Processed by: cddbd v1.4PL0 Copyright (c) Steve Scherf et al.
# Submitted via: CDex 1.51
#
DISCID=e50c8f12
DTITLE=various  - Mambo 2
DYEAR=1900
DGENRE=New Age
TTITLE0=Pachito eché
TTITLE1=La Cucaracha
TTITLE2=Al compas del Mambo
TTITLE3=Baile mi Mambo
TTITLE4=Ave Maria Lola
TTITLE5=Capullito de alheli
TTITLE6=Maria Cristina
TTITLE7=Malaguena
TTITLE8=Luna Lunera
TTITLE9=Descarga Mambo
TTITLE10=Ahora No Pare
TTITLE11=Caravan Manbo
TTITLE12=Mambo del Ruletero
TTITLE13=Mambo Diablo
TTITLE14=Chacho
TTITLE15=Bim Bam Bum
TTITLE16=Mambo Loco
TTITLE17=Mambo No. 5
EXTD=
EXTT0=
EXTT1=
EXTT2=
EXTT3=
EXTT4=
EXTT5=
EXTT6=
EXTT7=
EXTT8=
EXTT9=
EXTT10=
EXTT11=
EXTT12=
EXTT13=
EXTT14=
EXTT15=
EXTT16=
EXTT17=
PLAYORDER=
